<?xml version="1.0" encoding="utf-8"?>
<?xml-stylesheet type="text/css" href="chart.css" ?>
<!DOCTYPE svg PUBLIC "-//W3C//DTD SVG 1.1//EN" "http://www.w3.org/Graphics/SVG/1.1/DTD/svg11.dtd">
<svg version="1.1" xmlns="http://www.w3.org/2000/svg" width="960" height="250"><g transform="translate(50,20)"><g class="candlestick"><g class="data"><path class="candle body up" d="M 96.39327024185066 173.33767926988037 l 18.71713985278654 0 L 115.1104100946372 160.29986962189037 l -18.71713985278654 0 L 96.39327024185066 173.33767926988037 M 119.78969505783382 157.0404172098748 l 18.71713985278654 0 L 138.50683491062037 150.52151238591597 l -18.71713985278654 0 L 119.78969505783382 157.0404172098748 M 143.186119873817 147.2620599739004 l 18.71713985278654 0 L 161.90325972660355 117.9269882659772 l -18.71713985278654 0 L 143.186119873817 147.2620599739004 M 330.35751840168234 163.55932203390597 l 18.71713985278654 0 L 349.0746582544689 160.29986962189037 l -18.71713985278654 0 L 330.35751840168234 163.55932203390597 M 377.1503680336487 160.29986962189037 l 18.71713985278654 0 L 395.86750788643525 150.52151238591597 l -18.71713985278654 0 L 377.1503680336487 160.29986962189037 M 400.5467928496319 153.78096479793157 l 18.71713985278654 0 L 419.26393270241846 147.2620599739004 l -18.71713985278654 0 L 400.5467928496319 153.78096479793157 M 447.3396424815982 147.2620599739004 l 18.71713985278654 0 L 466.05678233438476 140.74315514994157 l -18.71713985278654 0 L 447.3396424815982 147.2620599739004 M 494.1324921135646 130.96479791396717 l 18.71713985278654 0 L 512.8496319663511 124.445893089936 l -18.71713985278654 0 L 494.1324921135646 130.96479791396717 M 517.5289169295478 127.70534550195158 l 18.71713985278654 0 L 536.2460567823343 114.6675358539616 l -18.71713985278654 0 L 517.5289169295478 127.70534550195158 M 540.925341745531 111.40808344194602 l 18.71713985278654 0 L 559.6424815983175 88.59191655798162 l -18.71713985278654 0 L 540.925341745531 111.40808344194602 M 587.7181913774973 111.40808344194602 l 18.71713985278654 0 L 606.4353312302839 95.11082138201282 l -18.71713985278654 0 L 587.7181913774973 111.40808344194602 M 611.1146161934805 98.37027379402838 l 18.71713985278654 0 L 629.8317560462671 78.81355932200722 l -18.71713985278654 0 L 611.1146161934805 98.37027379402838 M 634.5110410094636 65.77574967401722 l 18.71713985278654 0 L 653.2281808622502 62.51629726207402 l -18.71713985278654 0 L 634.5110410094636 65.77574967401722 M 657.9074658254468 59.25684485005842 l 18.71713985278654 0 L 676.6246056782334 36.44067796609403 l -18.71713985278654 0 L 657.9074658254468 59.25684485005842 M 704.7003154574132 36.44067796609403 l 18.71713985278654 0 L 723.4174553101998 20.143415906160822 l -18.71713985278654 0 L 704.7003154574132 36.44067796609403 M 774.8895899053628 16.883963494145227 l 18.71713985278654 0 L 793.6067297581493 7.105606258170827 l -18.71713985278654 0 L 774.8895899053628 16.883963494145227 M 845.0788643533123 26.662320730119625 l 18.71713985278654 0 L 863.7960042060988 20.143415906160822 l -18.71713985278654 0 L 845.0788643533123 26.662320730119625"></path><path class="candle body down" d="M 2.807570977917976 52.737940026099615 l 18.71713985278654 0 L 21.524710830704517 72.29465449804842 l -18.71713985278654 0 L 2.807570977917976 52.737940026099615 M 26.20399579390115 75.55410691006401 l 18.71713985278654 0 L 44.92113564668769 82.07301173402281 l -18.71713985278654 0 L 26.20399579390115 75.55410691006401 M 49.600420609884324 85.3324641460384 l 18.71713985278654 0 L 68.31756046267087 144.00260756188482 l -18.71713985278654 0 L 49.600420609884324 85.3324641460384 M 72.99684542586749 150.52151238591597 l 18.71713985278654 0 L 91.71398527865404 170.0782268578648 l -18.71713985278654 0 L 72.99684542586749 150.52151238591597 M 166.5825446898002 124.445893089936 l 18.71713985278654 0 L 185.29968454258673 130.96479791396717 l -18.71713985278654 0 L 166.5825446898002 124.445893089936 M 189.97896950578334 137.483702737926 l 18.71713985278654 0 L 208.69610935856988 140.74315514994157 l -18.71713985278654 0 L 189.97896950578334 137.483702737926 M 213.37539432176652 137.483702737926 l 18.71713985278654 0 L 232.09253417455307 140.74315514994157 l -18.71713985278654 0 L 213.37539432176652 137.483702737926 M 283.56466876971604 130.96479791396717 l 18.71713985278654 0 L 302.2818086225026 134.2242503259104 l -18.71713985278654 0 L 283.56466876971604 130.96479791396717 M 306.96109358569925 127.70534550195158 l 18.71713985278654 0 L 325.6782334384858 160.29986962189037 l -18.71713985278654 0 L 306.96109358569925 127.70534550195158 M 564.3217665615141 91.85136896999721 l 18.71713985278654 0 L 583.0389064143006 108.14863103000279 l -18.71713985278654 0 L 564.3217665615141 91.85136896999721 M 681.30389064143 39.70013037810962 l 18.71713985278654 0 L 700.0210304942166 46.219035202068426 l -18.71713985278654 0 L 681.30389064143 39.70013037810962 M 751.4931650893795 13.624511082129631 l 18.71713985278654 0 L 770.2103049421661 23.40286831810403 l -18.71713985278654 0 L 751.4931650893795 13.624511082129631 M 798.286014721346 10.365058670114035 l 18.71713985278654 0 L 817.0031545741325 13.624511082129631 l -18.71713985278654 0 L 798.286014721346 10.365058670114035 M 821.6824395373292 16.883963494145227 l 18.71713985278654 0 L 840.3995793901157 23.40286831810403 l -18.71713985278654 0 L 821.6824395373292 16.883963494145227"></path><path class="candle body equal" d="M 236.77181913774967 137.483702737926 l 18.71713985278654 0 M 260.1682439537329 134.2242503259104 l 18.71713985278654 0 M 353.75394321766555 163.55932203390597 l 18.71713985278654 0 M 423.94321766561507 150.52151238591597 l 18.71713985278654 0 M 470.73606729758137 137.483702737926 l 18.71713985278654 0 M 728.0967402733963 16.883963494145227 l 18.71713985278654 0 M 868.4752891692955 16.883963494145227 l 18.71713985278654 0"></path><path class="candle wick up" d="M 105.75184016824393 153.78096479793157 L 105.75184016824393 160.29986962189037 M 105.75184016824393 173.33767926988037 L 105.75184016824393 196.15384615384477 M 129.1482649842271 144.00260756188482 L 129.1482649842271 150.52151238591597 M 129.1482649842271 157.0404172098748 L 129.1482649842271 157.0404172098748 M 152.54468980021028 117.9269882659772 L 152.54468980021028 117.9269882659772 M 152.54468980021028 147.2620599739004 L 152.54468980021028 147.2620599739004 M 339.7160883280756 153.78096479793157 L 339.7160883280756 160.29986962189037 M 339.7160883280756 163.55932203390597 L 339.7160883280756 166.8187744458492 M 386.508937960042 147.2620599739004 L 386.508937960042 150.52151238591597 M 386.508937960042 160.29986962189037 L 386.508937960042 160.29986962189037 M 409.9053627760252 144.00260756188482 L 409.9053627760252 147.2620599739004 M 409.9053627760252 153.78096479793157 L 409.9053627760252 153.78096479793157 M 456.6982124079915 137.483702737926 L 456.6982124079915 140.74315514994157 M 456.6982124079915 147.2620599739004 L 456.6982124079915 150.52151238591597 M 503.49106203995785 121.18644067792039 L 503.49106203995785 124.445893089936 M 503.49106203995785 130.96479791396717 L 503.49106203995785 130.96479791396717 M 526.887486855941 114.6675358539616 L 526.887486855941 114.6675358539616 M 526.887486855941 127.70534550195158 L 526.887486855941 134.2242503259104 M 550.2839116719242 85.3324641460384 L 550.2839116719242 88.59191655798162 M 550.2839116719242 111.40808344194602 L 550.2839116719242 111.40808344194602 M 597.0767613038905 95.11082138201282 L 597.0767613038905 95.11082138201282 M 597.0767613038905 111.40808344194602 L 597.0767613038905 111.40808344194602 M 620.4731861198737 78.81355932200722 L 620.4731861198737 78.81355932200722 M 620.4731861198737 98.37027379402838 L 620.4731861198737 98.37027379402838 M 643.8696109358568 59.25684485005842 L 643.8696109358568 62.51629726207402 M 643.8696109358568 65.77574967401722 L 643.8696109358568 65.77574967401722 M 667.26603575184 23.40286831810403 L 667.26603575184 36.44067796609403 M 667.26603575184 59.25684485005842 L 667.26603575184 59.25684485005842 M 714.0588853838065 13.624511082129631 L 714.0588853838065 20.143415906160822 M 714.0588853838065 36.44067796609403 L 714.0588853838065 46.219035202068426 M 784.248159831756 3.8461538461552314 L 784.248159831756 7.105606258170827 M 784.248159831756 16.883963494145227 L 784.248159831756 26.662320730119625 M 854.4374342797055 16.883963494145227 L 854.4374342797055 20.143415906160822 M 854.4374342797055 26.662320730119625 L 854.4374342797055 26.662320730119625" style="stroke-width: 1;"></path><path class="candle wick down" d="M 12.166140904311247 52.737940026099615 L 12.166140904311247 52.737940026099615 M 12.166140904311247 72.29465449804842 L 12.166140904311247 75.55410691006401 M 35.56256572029442 72.29465449804842 L 35.56256572029442 75.55410691006401 M 35.56256572029442 82.07301173402281 L 35.56256572029442 82.07301173402281 M 58.9589905362776 82.07301173402281 L 58.9589905362776 85.3324641460384 M 58.9589905362776 144.00260756188482 L 58.9589905362776 144.00260756188482 M 82.35541535226076 144.00260756188482 L 82.35541535226076 150.52151238591597 M 82.35541535226076 170.0782268578648 L 82.35541535226076 170.0782268578648 M 175.94111461619346 117.9269882659772 L 175.94111461619346 124.445893089936 M 175.94111461619346 130.96479791396717 L 175.94111461619346 134.2242503259104 M 199.3375394321766 134.2242503259104 L 199.3375394321766 137.483702737926 M 199.3375394321766 140.74315514994157 L 199.3375394321766 140.74315514994157 M 222.7339642481598 134.2242503259104 L 222.7339642481598 137.483702737926 M 222.7339642481598 140.74315514994157 L 222.7339642481598 140.74315514994157 M 292.9232386961093 130.96479791396717 L 292.9232386961093 130.96479791396717 M 292.9232386961093 134.2242503259104 L 292.9232386961093 134.2242503259104 M 316.3196635120925 127.70534550195158 L 316.3196635120925 127.70534550195158 M 316.3196635120925 160.29986962189037 L 316.3196635120925 163.55932203390597 M 573.6803364879073 91.85136896999721 L 573.6803364879073 91.85136896999721 M 573.6803364879073 108.14863103000279 L 573.6803364879073 108.14863103000279 M 690.6624605678232 29.921773142135223 L 690.6624605678232 39.70013037810962 M 690.6624605678232 46.219035202068426 L 690.6624605678232 46.219035202068426 M 760.8517350157728 13.624511082129631 L 760.8517350157728 13.624511082129631 M 760.8517350157728 23.40286831810403 L 760.8517350157728 23.40286831810403 M 807.6445846477392 3.8461538461552314 L 807.6445846477392 10.365058670114035 M 807.6445846477392 13.624511082129631 L 807.6445846477392 13.624511082129631 M 831.0410094637224 13.624511082129631 L 831.0410094637224 16.883963494145227 M 831.0410094637224 23.40286831810403 L 831.0410094637224 26.662320730119625" style="stroke-width: 1;"></path><path class="candle wick equal" d="M 246.13038906414295 137.483702737926 L 246.13038906414295 137.483702737926 M 236.77181913774967 137.483702737926 l 18.71713985278654 0 M 246.13038906414295 137.483702737926 L 246.13038906414295 137.483702737926 M 269.52681388012616 134.2242503259104 L 269.52681388012616 134.2242503259104 M 260.1682439537329 134.2242503259104 l 18.71713985278654 0 M 269.52681388012616 134.2242503259104 L 269.52681388012616 134.2242503259104 M 363.1125131440588 163.55932203390597 L 363.1125131440588 163.55932203390597 M 353.75394321766555 163.55932203390597 l 18.71713985278654 0 M 363.1125131440588 163.55932203390597 L 363.1125131440588 173.33767926988037 M 433.30178759200834 144.00260756188482 L 433.30178759200834 150.52151238591597 M 423.94321766561507 150.52151238591597 l 18.71713985278654 0 M 433.30178759200834 150.52151238591597 L 433.30178759200834 150.52151238591597 M 480.09463722397464 137.483702737926 L 480.09463722397464 137.483702737926 M 470.73606729758137 137.483702737926 l 18.71713985278654 0 M 480.09463722397464 137.483702737926 L 480.09463722397464 140.74315514994157 M 737.4553101997896 16.883963494145227 L 737.4553101997896 16.883963494145227 M 728.0967402733963 16.883963494145227 l 18.71713985278654 0 M 737.4553101997896 16.883963494145227 L 737.4553101997896 23.40286831810403 M 877.8338590956887 10.365058670114035 L 877.8338590956887 16.883963494145227 M 868.4752891692955 16.883963494145227 l 18.71713985278654 0 M 877.8338590956887 16.883963494145227 L 877.8338590956887 23.40286831810403" style="stroke-width: 1;"></path></g></g><g class="x axis" transform="translate(0,200)"><g class="tick" style="opacity: 1;" transform="translate(12.166140904311247,0)"><line y2="6" x2="0"></line><text dy=".71em" style="text-anchor: middle;" y="9" x="0">11 PM</text></g><g class="tick" style="opacity: 1;" transform="translate(129.1482649842271,0)"><line y2="6" x2="0"></line><text dy=".71em" style="text-anchor: middle;" y="9" x="0">11:05</text></g><g class="tick" style="opacity: 1;" transform="translate(246.13038906414295,0)"><line y2="6" x2="0"></line><text dy=".71em" style="text-anchor: middle;" y="9" x="0">11:10</text></g><g class="tick" style="opacity: 1;" transform="translate(363.1125131440588,0)"><line y2="6" x2="0"></line><text dy=".71em" style="text-anchor: middle;" y="9" x="0">11:15</text></g><g class="tick" style="opacity: 1;" transform="translate(480.09463722397464,0)"><line y2="6" x2="0"></line><text dy=".71em" style="text-anchor: middle;" y="9" x="0">11:20</text></g><g class="tick" style="opacity: 1;" transform="translate(597.0767613038905,0)"><line y2="6" x2="0"></line><text dy=".71em" style="text-anchor: middle;" y="9" x="0">11:25</text></g><g class="tick" style="opacity: 1;" transform="translate(714.0588853838065,0)"><line y2="6" x2="0"></line><text dy=".71em" style="text-anchor: middle;" y="9" x="0">11:30</text></g><g class="tick" style="opacity: 1;" transform="translate(831.0410094637224,0)"><line y2="6" x2="0"></line><text dy=".71em" style="text-anchor: middle;" y="9" x="0">11:35</text></g><path class="domain" d="M0,6V0H890V6"></path></g><g class="y axis"><g class="tick" style="opacity: 1;" transform="translate(0,196.15384615377238)"><line x2="-6" y2="0"></line><text dy=".32em" style="text-anchor: end;" x="-9" y="0">1.13675</text></g><g class="tick" style="opacity: 1;" transform="translate(0,179.85658409376683)"><line x2="-6" y2="0"></line><text dy=".32em" style="text-anchor: end;" x="-9" y="0">1.13680</text></g><g class="tick" style="opacity: 1;" transform="translate(0,163.5593220338336)"><line x2="-6" y2="0"></line><text dy=".32em" style="text-anchor: end;" x="-9" y="0">1.13685</text></g><g class="tick" style="opacity: 1;" transform="translate(0,147.26205997382803)"><line x2="-6" y2="0"></line><text dy=".32em" style="text-anchor: end;" x="-9" y="0">1.13690</text></g><g class="tick" style="opacity: 1;" transform="translate(0,130.9647979138948)"><line x2="-6" y2="0"></line><text dy=".32em" style="text-anchor: end;" x="-9" y="0">1.13695</text></g><g class="tick" style="opacity: 1;" transform="translate(0,114.66753585388922)"><line x2="-6" y2="0"></line><text dy=".32em" style="text-anchor: end;" x="-9" y="0">1.13700</text></g><g class="tick" style="opacity: 1;" transform="translate(0,98.37027379395602)"><line x2="-6" y2="0"></line><text dy=".32em" style="text-anchor: end;" x="-9" y="0">1.13705</text></g><g class="tick" style="opacity: 1;" transform="translate(0,82.07301173395042)"><line x2="-6" y2="0"></line><text dy=".32em" style="text-anchor: end;" x="-9" y="0">1.13710</text></g><g class="tick" style="opacity: 1;" transform="translate(0,65.77574967401722)"><line x2="-6" y2="0"></line><text dy=".32em" style="text-anchor: end;" x="-9" y="0">1.13715</text></g><g class="tick" style="opacity: 1;" transform="translate(0,49.478487614011634)"><line x2="-6" y2="0"></line><text dy=".32em" style="text-anchor: end;" x="-9" y="0">1.13720</text></g><g class="tick" style="opacity: 1;" transform="translate(0,33.18122555407843)"><line x2="-6" y2="0"></line><text dy=".32em" style="text-anchor: end;" x="-9" y="0">1.13725</text></g><g class="tick" style="opacity: 1;" transform="translate(0,16.883963494072862)"><line x2="-6" y2="0"></line><text dy=".32em" style="text-anchor: end;" x="-9" y="0">1.13730</text></g><g class="tick" style="opacity: 1;" transform="translate(0,0.5867014341396359)"><line x2="-6" y2="0"></line><text dy=".32em" style="text-anchor: end;" x="-9" y="0">1.13735</text></g><path class="domain" d="M-6,0H0V200H-6"></path><text transform="rotate(-90)" y="6" dy=".71em" style="text-anchor: end;">Price ($)</text></g></g></svg>
